<?xml version="1.0" standalone="no"?>
<!DOCTYPE svg PUBLIC "-//W3C//DTD SVG 20010904//EN"
 "http://www.w3.org/TR/2001/REC-SVG-20010904/DTD/svg10.dtd">
<svg version="1.0" xmlns="http://www.w3.org/2000/svg"
 width="16.000000pt" height="16.000000pt" viewBox="0 0 16.000000 16.000000"
 preserveAspectRatio="xMidYMid meet">
<metadata>
Created by potrace 1.11, written by Peter Selinger 2001-2013
</metadata>
<g transform="translate(0.000000,16.000000) scale(0.001316,-0.001316)"
fill="#000000" stroke="none">
<path d="M4745 12142 c-2 -3 -42 -6 -87 -8 -108 -3 -271 -14 -298 -19 -11 -2
-62 -7 -113 -10 -51 -3 -99 -8 -107 -10 -8 -2 -43 -7 -77 -10 -34 -3 -70 -7
-80 -9 -10 -2 -47 -7 -83 -11 -36 -4 -74 -9 -84 -11 -11 -2 -42 -6 -70 -9 -28
-3 -58 -8 -66 -10 -8 -2 -35 -7 -60 -10 -25 -3 -52 -7 -60 -10 -8 -2 -33 -6
-55 -10 -41 -6 -81 -12 -125 -19 -14 -3 -92 -18 -175 -35 -82 -17 -161 -34
-175 -36 -38 -7 -51 -10 -260 -60 -85 -21 -220 -55 -300 -77 -80 -23 -158 -44
-175 -47 -32 -7 -38 -26 -23 -70 5 -13 10 -38 13 -55 2 -17 18 -92 34 -166 39
-177 42 -193 43 -207 1 -12 18 -12 48 0 8 3 42 13 75 22 77 21 166 44 185 49
8 2 42 11 75 20 33 9 71 19 85 21 14 2 40 9 58 14 17 5 32 7 32 4 0 -3 7 1 17
8 9 8 19 13 22 11 6 -3 43 3 86 13 34 8 308 65 340 71 17 2 37 7 45 9 23 6 70
14 120 20 25 3 53 8 63 11 19 6 27 7 111 19 28 3 52 8 56 10 3 2 37 6 75 10
39 4 79 9 90 12 11 2 36 6 55 8 19 2 53 6 75 9 73 10 119 15 185 21 36 3 81 7
100 10 38 4 178 14 280 21 182 12 727 23 735 16 2 -2 68 -5 146 -7 153 -4 235
-9 444 -30 28 -3 57 -6 65 -6 16 -1 220 -28 260 -34 14 -2 39 -6 56 -9 17 -3
46 -8 65 -11 19 -2 61 -9 94 -15 33 -7 69 -13 80 -15 148 -26 405 -95 645
-175 168 -56 453 -183 630 -281 76 -42 250 -150 273 -169 6 -5 41 -31 77 -57
220 -157 473 -406 624 -612 115 -157 236 -380 315 -583 24 -58 44 -112 45
-120 1 -7 7 -22 13 -33 13 -24 74 -231 77 -261 1 -11 5 -24 8 -30 3 -5 9 -27
13 -49 5 -22 9 -44 11 -50 1 -5 5 -28 9 -50 3 -22 8 -47 10 -55 5 -18 13 -69
29 -192 31 -237 37 -639 11 -808 -3 -19 -7 -53 -10 -75 -3 -22 -7 -51 -10 -65
-3 -14 -7 -38 -9 -55 -9 -68 -80 -326 -122 -444 -25 -69 -71 -178 -100 -241
-30 -63 -55 -117 -56 -120 0 -3 -10 -23 -23 -45 -13 -22 -39 -71 -58 -108 -19
-37 -39 -73 -45 -80 -5 -7 -26 -43 -47 -82 -21 -38 -42 -71 -46 -73 -5 -2 -9
-10 -9 -17 0 -7 -15 -36 -32 -64 -34 -52 -66 -102 -164 -261 -32 -52 -62 -97
-66 -98 -5 -2 -8 -8 -8 -13 0 -4 -13 -28 -29 -51 -16 -24 -92 -137 -168 -253
-145 -219 -171 -256 -319 -470 -50 -71 -106 -152 -125 -180 -19 -27 -38 -55
-44 -61 -5 -6 -28 -37 -50 -68 -22 -31 -78 -109 -125 -174 -47 -64 -96 -134
-108 -154 -13 -20 -26 -38 -30 -40 -4 -2 -27 -32 -52 -68 -44 -64 -150 -211
-173 -240 -7 -8 -28 -37 -47 -65 -19 -27 -37 -52 -41 -55 -3 -3 -18 -23 -35
-45 -16 -22 -33 -44 -37 -50 -4 -5 -36 -49 -71 -98 -81 -112 -98 -135 -116
-158 -8 -10 -36 -47 -61 -81 -74 -102 -284 -383 -289 -388 -3 -3 -25 -32 -49
-65 -25 -33 -48 -62 -53 -63 -4 -2 -8 -9 -8 -16 0 -8 -10 -24 -23 -37 -12 -13
-68 -85 -122 -159 -97 -131 -119 -160 -140 -184 -6 -6 -21 -28 -35 -48 -14
-21 -28 -38 -32 -38 -5 0 -8 -6 -8 -14 0 -12 48 -14 293 -15 l293 0 17 27 c9
15 26 39 39 53 28 32 58 71 129 164 29 39 55 72 58 75 3 3 26 32 51 65 25 33
53 69 62 80 22 26 314 403 336 434 29 39 86 115 95 126 20 24 113 149 122 163
6 9 15 21 21 27 6 5 28 35 49 65 22 30 42 57 45 60 7 6 115 147 145 190 48 68
209 285 214 290 3 3 22 28 41 55 19 28 38 52 42 53 4 2 8 8 8 13 0 5 6 17 14
26 33 41 86 114 86 119 0 6 19 30 43 52 9 9 17 20 17 24 0 5 28 48 63 96 35
48 99 139 142 202 43 63 81 117 84 120 3 3 11 13 16 22 18 30 234 353 244 365
6 7 11 14 11 17 0 3 13 25 29 48 55 81 161 247 161 253 0 3 24 42 53 88 29 45
64 102 78 127 13 25 26 47 29 50 5 5 7 8 65 115 21 39 54 99 74 135 52 93 201
401 201 415 0 2 5 16 12 32 6 15 12 30 13 33 1 3 5 12 8 20 25 57 115 344 121
385 2 11 6 29 9 40 11 34 49 252 62 347 26 205 27 695 0 923 -17 150 -27 231
-31 249 -4 21 -10 52 -19 104 -4 25 -18 91 -31 152 -15 70 -68 264 -81 300 -4
8 -7 17 -8 20 -19 63 -53 160 -76 215 -7 17 -13 32 -14 35 -18 46 -50 116 -94
205 -30 61 -55 112 -56 115 -2 12 -93 164 -153 255 -64 98 -171 240 -241 320
-46 52 -233 238 -291 291 -49 44 -218 172 -290 219 -25 17 -46 33 -48 38 -2 4
-10 7 -18 7 -8 0 -14 4 -14 9 0 5 -15 16 -32 25 -52 26 -96 52 -114 67 -39 33
-362 193 -519 259 -55 22 -109 45 -120 50 -108 46 -538 181 -625 196 -14 3
-40 9 -58 15 -18 6 -39 12 -45 13 -11 3 -69 14 -107 22 -8 1 -49 10 -90 19
-41 9 -97 20 -125 25 -97 18 -110 20 -140 25 -16 3 -50 8 -75 11 -25 3 -56 8
-70 10 -14 3 -41 7 -60 9 -19 1 -57 6 -85 9 -27 3 -77 9 -110 12 -33 3 -73 8
-90 9 -16 2 -70 7 -120 10 -49 4 -117 9 -150 12 -82 6 -924 11 -930 5z"/>
<path d="M4837 11153 c-2 -1 -54 -5 -117 -7 -141 -7 -249 -14 -315 -21 -27 -3
-70 -7 -95 -9 -74 -7 -163 -16 -200 -21 -19 -3 -53 -8 -75 -10 -22 -2 -49 -6
-60 -9 -11 -2 -49 -7 -85 -11 -36 -4 -74 -9 -85 -12 -23 -5 -56 -10 -100 -17
-34 -5 -88 -14 -125 -21 -14 -3 -38 -7 -55 -10 -16 -3 -41 -7 -55 -10 -49 -11
-125 -26 -150 -31 -14 -2 -34 -6 -46 -9 -12 -3 -39 -7 -60 -11 -21 -3 -46 -10
-54 -14 -8 -4 -18 -8 -23 -8 -22 -1 -382 -88 -395 -96 -5 -3 -20 -7 -34 -10
-32 -5 -173 -44 -215 -58 -17 -6 -29 -16 -27 -22 3 -11 13 -55 19 -91 2 -11
15 -73 29 -138 14 -65 28 -133 32 -150 10 -58 22 -108 28 -114 3 -3 27 1 53
10 85 27 383 108 413 112 3 0 11 4 18 8 6 5 12 6 12 3 0 -2 15 0 33 5 31 9
146 36 197 45 14 3 34 8 45 11 11 4 27 7 35 8 8 1 53 10 100 19 73 15 183 35
270 50 14 3 48 7 75 11 28 3 57 8 65 10 18 4 99 15 155 20 22 2 56 7 75 10 19
4 51 8 70 10 19 2 62 6 95 9 33 3 89 8 125 12 36 4 79 8 95 10 281 26 993 26
1250 0 17 -2 64 -7 105 -11 90 -8 123 -12 175 -20 22 -4 52 -8 68 -11 15 -2
42 -6 60 -9 17 -3 46 -8 62 -11 17 -3 37 -7 45 -9 8 -2 31 -7 50 -10 39 -6
146 -31 200 -45 45 -12 122 -33 135 -36 6 -1 48 -15 95 -30 47 -15 87 -28 90
-29 3 -1 14 -5 25 -9 405 -153 719 -339 922 -547 91 -93 153 -162 153 -171 0
-4 6 -13 14 -21 25 -24 125 -182 171 -269 66 -124 140 -310 161 -403 1 -5 9
-37 18 -70 9 -33 19 -76 22 -95 3 -19 7 -42 10 -51 2 -9 7 -32 9 -50 11 -90
15 -116 20 -139 11 -49 14 -426 5 -475 -6 -27 -13 -68 -15 -90 -3 -22 -8 -48
-11 -57 -5 -15 -9 -34 -19 -83 -3 -12 -14 -48 -26 -80 -11 -33 -22 -67 -24
-76 -7 -35 -102 -252 -160 -369 -60 -121 -150 -282 -204 -365 -39 -60 -44 -70
-65 -105 -10 -18 -27 -42 -37 -53 -10 -12 -19 -27 -19 -34 0 -7 -4 -13 -10
-13 -5 0 -10 -6 -10 -13 0 -8 -8 -23 -17 -35 -10 -11 -72 -100 -138 -197 -126
-186 -296 -428 -320 -458 -8 -9 -15 -22 -15 -27 0 -6 -4 -10 -8 -10 -5 0 -14
-10 -19 -22 -6 -13 -18 -32 -27 -43 -28 -35 -206 -287 -206 -292 0 -2 -6 -10
-12 -17 -7 -8 -19 -22 -26 -32 -7 -11 -35 -50 -62 -89 -27 -38 -66 -94 -87
-124 -21 -29 -49 -68 -63 -86 -14 -18 -32 -43 -40 -55 -15 -22 -57 -81 -125
-175 -20 -27 -61 -84 -91 -125 -30 -41 -61 -84 -70 -95 -8 -11 -23 -32 -32
-47 -9 -16 -20 -28 -24 -28 -4 0 -8 -4 -8 -9 0 -6 -28 -48 -62 -95 -35 -47
-97 -133 -138 -191 -41 -58 -82 -114 -90 -124 -16 -21 -23 -30 -99 -136 -27
-38 -54 -74 -58 -80 -5 -5 -24 -32 -43 -60 -19 -27 -37 -52 -40 -55 -3 -3 -35
-45 -70 -95 -36 -49 -72 -99 -82 -109 -10 -11 -18 -23 -18 -27 0 -4 -6 -14
-13 -21 -11 -11 -128 -171 -177 -241 -20 -29 -105 -145 -130 -177 -65 -85
-140 -192 -140 -200 0 -6 -3 -10 -7 -10 -5 -1 -30 -32 -58 -71 -27 -38 -78
-108 -112 -154 -35 -46 -63 -89 -63 -95 0 -5 -4 -10 -10 -10 -5 0 -10 -4 -10
-9 0 -6 118 -10 293 -10 l292 0 35 47 c19 26 37 49 40 52 3 3 21 28 39 55 19
28 38 52 41 55 3 3 46 59 95 125 49 66 95 126 102 133 7 7 13 17 13 21 0 4 8
16 18 27 9 10 37 46 62 79 24 33 48 65 52 70 13 15 210 280 347 465 67 91 128
173 136 182 8 9 30 40 49 67 19 28 40 57 48 65 25 29 38 45 38 49 0 4 204 280
235 319 8 9 22 29 32 45 10 15 22 33 26 38 4 6 39 53 77 105 38 52 74 100 80
107 5 7 10 17 10 23 0 5 4 10 8 10 4 0 16 13 25 30 10 16 23 35 30 42 13 14
21 24 86 119 24 35 49 69 56 74 6 6 19 25 29 43 9 17 20 32 24 32 4 0 16 16
26 35 11 19 23 35 28 35 4 0 8 5 8 11 0 6 20 38 45 70 25 33 45 63 45 68 0 5
3 11 8 13 4 2 21 23 38 48 135 194 257 368 269 383 8 9 15 19 15 21 0 2 16 28
36 57 36 55 41 61 94 136 16 24 30 47 30 52 0 5 4 11 8 13 5 2 41 53 80 113
40 61 76 117 82 125 23 34 77 117 96 150 12 19 61 100 109 180 89 147 128 217
193 344 21 39 41 74 45 77 5 3 8 9 8 13 -1 6 11 36 46 114 9 20 17 39 18 42 1
3 7 19 14 35 49 113 123 369 135 465 3 19 5 35 6 35 18 0 31 460 17 595 -3 30
-9 87 -12 125 -3 39 -8 77 -10 85 -3 8 -7 35 -10 60 -2 25 -7 56 -10 70 -2 14
-9 48 -15 76 -6 28 -13 62 -15 76 -3 13 -19 72 -36 129 -17 57 -32 111 -34
119 -8 35 -79 207 -133 320 -68 142 -218 388 -244 398 -4 2 -8 10 -8 17 0 7
-3 15 -7 17 -5 2 -33 32 -63 68 -107 127 -291 296 -415 381 -27 19 -52 37 -55
40 -3 3 -27 19 -53 35 -27 16 -61 37 -75 46 -56 35 -244 132 -347 178 -27 12
-69 31 -92 41 -23 11 -45 19 -48 19 -4 0 -21 6 -38 14 -87 38 -346 125 -422
142 -5 1 -30 7 -53 13 -44 12 -195 47 -242 57 -87 17 -166 29 -247 39 -13 2
-40 6 -60 9 -49 8 -94 14 -168 21 -33 3 -76 7 -95 10 -37 5 -141 13 -275 21
-84 6 -754 12 -758 7z"/>
<path d="M4936 10123 c-1 -2 -67 -5 -147 -8 -166 -6 -238 -11 -329 -20 -36 -3
-87 -8 -115 -11 -112 -9 -146 -13 -196 -19 -28 -4 -61 -8 -72 -11 -11 -2 -45
-6 -75 -9 -30 -3 -67 -7 -81 -10 -14 -2 -42 -7 -61 -10 -19 -3 -46 -8 -60 -10
-14 -3 -38 -7 -55 -10 -69 -10 -95 -15 -200 -35 -60 -12 -117 -23 -125 -25 -8
-2 -46 -10 -85 -19 -38 -8 -108 -24 -155 -36 -144 -36 -154 -39 -185 -44 -16
-3 -41 -10 -55 -15 -14 -6 -74 -24 -135 -41 -106 -30 -142 -51 -127 -74 3 -6
7 -17 9 -25 1 -7 6 -34 12 -60 6 -25 13 -57 15 -71 3 -14 10 -50 16 -80 6 -30
13 -66 16 -80 13 -73 28 -130 33 -130 3 0 47 13 96 29 73 24 221 65 270 75 6
1 19 5 30 9 11 3 31 8 45 11 14 3 36 7 50 10 14 3 48 10 75 16 55 11 84 17
118 25 21 5 33 7 117 22 19 3 44 7 55 9 155 30 247 44 255 39 6 -3 10 -2 10 2
0 5 10 9 23 10 12 0 51 5 87 11 91 15 127 20 285 37 28 3 66 8 86 11 19 2 69
7 110 10 41 2 97 7 124 9 298 23 839 23 1035 0 19 -3 62 -7 95 -10 207 -18
470 -73 675 -142 105 -35 332 -139 338 -155 2 -4 9 -8 16 -8 21 0 200 -141
265 -208 105 -111 193 -246 237 -367 47 -127 72 -221 79 -291 2 -22 6 -50 10
-64 8 -35 9 -276 1 -325 -23 -150 -64 -263 -165 -460 -34 -66 -66 -127 -71
-135 -5 -8 -37 -62 -71 -120 -55 -93 -230 -368 -251 -395 -5 -5 -54 -75 -109
-155 -56 -80 -105 -146 -110 -148 -5 -2 -9 -8 -9 -13 0 -6 -21 -38 -47 -73
-27 -35 -55 -74 -63 -86 -21 -31 -139 -192 -153 -210 -7 -8 -23 -31 -37 -50
-13 -19 -27 -37 -30 -40 -3 -3 -16 -22 -30 -42 -14 -21 -28 -38 -32 -38 -5 0
-8 -5 -8 -10 0 -6 -18 -34 -40 -63 -22 -29 -44 -56 -48 -62 -4 -5 -19 -26 -32
-45 -13 -19 -32 -44 -42 -54 -10 -11 -18 -23 -18 -26 0 -4 -8 -16 -17 -28 -37
-43 -49 -58 -67 -87 -11 -16 -23 -34 -28 -40 -9 -10 -166 -222 -196 -264 -9
-13 -62 -83 -117 -157 -55 -73 -125 -168 -155 -210 -30 -42 -60 -82 -65 -88
-6 -6 -22 -27 -36 -46 -14 -19 -84 -114 -155 -210 -72 -96 -168 -227 -214
-290 -46 -63 -87 -117 -90 -120 -4 -3 -21 -27 -40 -55 -19 -27 -36 -52 -39
-55 -4 -3 -19 -23 -36 -45 -16 -22 -32 -42 -35 -45 -4 -3 -9 -9 -11 -15 -2 -5
-83 -116 -179 -245 -96 -129 -200 -269 -230 -310 -30 -41 -60 -82 -67 -90 -7
-8 -90 -118 -183 -245 -93 -126 -178 -241 -189 -255 -11 -14 -31 -42 -45 -62
l-25 -37 295 0 294 1 100 136 c56 75 109 148 118 160 9 13 28 39 42 57 14 18
32 43 40 55 21 31 89 122 105 142 8 9 29 39 48 66 18 27 39 55 45 63 7 8 30
39 52 69 22 30 47 64 55 75 17 21 101 136 280 380 60 83 113 152 117 153 4 2
8 10 8 18 0 8 4 14 8 14 4 0 15 12 24 28 9 15 25 37 35 49 10 11 25 31 33 43
8 13 33 46 55 75 22 29 47 63 55 75 8 12 23 31 32 43 9 12 71 96 137 187 66
91 124 170 129 175 5 6 26 35 47 65 21 30 41 57 45 60 4 3 9 10 11 16 2 6 14
24 27 40 42 54 213 289 230 316 9 16 20 28 25 28 4 0 7 6 7 14 0 8 3 16 8 18
4 2 25 28 47 58 22 30 42 57 45 60 3 3 23 31 44 63 22 31 43 57 48 57 4 0 8 6
8 13 0 7 8 22 18 33 9 10 40 51 67 89 27 39 53 72 57 73 4 2 8 8 8 13 0 5 20
37 45 71 25 35 52 72 60 83 7 11 37 51 64 88 28 37 51 72 51 77 0 6 4 10 8 10
4 0 16 15 27 33 10 17 21 34 25 37 3 3 28 37 55 75 27 39 58 84 69 100 12 17
24 32 27 35 5 5 83 116 104 148 6 9 37 54 70 101 57 81 167 246 247 371 44 68
112 186 152 265 17 33 35 67 41 75 5 8 10 20 11 25 1 6 19 46 39 90 21 44 38
85 39 90 1 6 12 36 24 67 24 63 61 203 68 257 3 20 7 50 10 66 10 68 4 323
-11 410 -19 120 -28 166 -42 220 -8 33 -17 67 -18 75 -4 14 -37 104 -64 172
-22 57 -99 205 -135 263 -92 144 -249 314 -366 395 -19 13 -41 30 -48 37 -26
25 -191 122 -293 171 -58 28 -157 70 -220 92 -63 23 -121 44 -129 47 -8 3 -24
8 -34 10 -11 2 -38 10 -61 18 -50 16 -234 61 -289 69 -21 4 -48 8 -60 11 -35
8 -78 15 -131 21 -27 3 -52 7 -55 9 -3 2 -37 6 -75 10 -39 3 -81 8 -95 11 -25
4 -98 10 -235 20 -72 5 -565 11 -569 7z"/>
<path d="M4846 9123 c-1 -1 -49 -5 -106 -8 -163 -11 -190 -13 -265 -19 -115
-11 -146 -14 -235 -25 -47 -6 -103 -13 -125 -16 -22 -3 -65 -9 -95 -15 -53 -8
-116 -18 -170 -25 -14 -2 -41 -6 -60 -9 -19 -4 -60 -11 -90 -16 -30 -6 -65
-12 -76 -14 -12 -2 -39 -7 -60 -10 -22 -4 -61 -11 -89 -16 -27 -5 -65 -12 -84
-15 -19 -3 -37 -8 -41 -10 -4 -3 -22 -6 -41 -9 -19 -2 -54 -9 -79 -15 -25 -5
-56 -12 -70 -15 -91 -17 -290 -78 -290 -89 0 -2 4 -17 10 -33 5 -16 11 -42 14
-59 3 -16 10 -50 16 -75 6 -25 12 -57 15 -72 2 -15 8 -44 14 -65 6 -21 13 -51
16 -68 23 -121 -2 -115 235 -56 69 17 136 33 149 36 22 4 86 17 151 31 51 10
200 38 265 49 17 3 41 7 55 10 26 5 228 35 270 40 14 1 48 5 75 9 522 63 1048
76 1570 41 56 -4 147 -15 165 -20 8 -2 33 -6 55 -10 137 -19 270 -77 332 -142
40 -43 80 -124 89 -178 3 -22 8 -43 10 -46 5 -9 6 -127 1 -159 -14 -93 -50
-172 -177 -389 -67 -116 -189 -300 -217 -329 -7 -7 -13 -17 -13 -21 0 -4 -8
-16 -17 -27 -10 -11 -34 -42 -53 -69 -19 -28 -39 -55 -45 -61 -5 -6 -28 -37
-50 -68 -38 -54 -191 -258 -240 -321 -13 -16 -55 -73 -94 -125 -39 -52 -74
-99 -78 -105 -5 -5 -66 -89 -137 -185 -72 -96 -209 -280 -305 -408 -97 -128
-180 -241 -186 -250 -5 -9 -14 -21 -20 -27 -5 -7 -18 -23 -28 -36 -10 -13 -76
-103 -147 -199 -130 -175 -156 -210 -175 -233 -6 -6 -35 -46 -65 -87 -30 -41
-60 -81 -67 -88 -7 -7 -20 -26 -30 -42 -9 -17 -21 -30 -25 -30 -4 0 -8 -5 -8
-11 0 -7 -6 -17 -13 -23 -7 -6 -85 -108 -173 -226 -87 -118 -163 -220 -169
-226 -5 -7 -18 -22 -27 -35 -34 -47 -158 -214 -167 -225 -5 -6 -40 -54 -77
-105 -38 -52 -71 -96 -74 -99 -3 -3 -30 -39 -60 -80 -30 -41 -57 -77 -60 -80
-4 -3 -28 -36 -55 -75 -27 -38 -54 -75 -60 -81 -6 -6 -28 -36 -49 -67 -22 -32
-43 -57 -48 -57 -4 0 -8 -4 -8 -10 0 -5 -6 -18 -14 -27 -8 -10 -85 -112 -170
-228 -192 -259 -176 -238 -263 -354 -40 -53 -73 -99 -73 -103 0 -4 131 -6 291
-6 l290 0 40 52 c21 28 43 56 47 61 4 6 19 26 32 45 14 19 31 41 38 48 6 7 26
35 44 60 18 26 37 52 43 58 5 7 18 22 27 35 39 54 420 565 433 582 8 9 15 21
15 26 0 5 4 11 8 13 4 2 82 102 172 223 90 121 167 222 172 223 4 2 8 10 8 17
0 7 3 15 8 17 4 2 54 66 112 143 58 77 108 142 112 143 5 2 8 10 8 17 0 7 3
15 8 17 4 2 34 39 66 83 33 44 66 86 73 93 7 7 13 17 13 21 0 4 10 18 22 31
12 13 37 45 55 72 19 27 42 58 51 68 9 10 30 36 45 57 142 193 222 299 229
301 4 2 8 8 8 13 0 5 24 40 53 78 28 38 61 81 72 96 11 16 25 33 30 39 6 7 21
27 35 46 13 19 28 40 32 45 5 6 40 53 79 105 39 52 76 102 82 110 7 8 37 49
67 90 30 41 57 77 60 80 3 3 23 31 44 63 22 31 43 57 48 57 4 0 8 5 8 10 0 6
5 16 10 23 6 7 47 62 91 122 44 61 89 120 100 133 10 12 19 27 19 32 0 6 3 10
8 10 4 0 25 27 47 60 22 33 43 60 47 60 5 0 8 6 8 14 0 8 3 16 8 18 4 2 19 21
34 43 15 22 62 88 105 147 43 59 85 116 93 128 8 12 31 44 50 70 19 27 60 85
90 130 30 45 61 88 68 95 6 8 12 16 12 20 0 3 18 30 40 60 22 30 40 59 40 64
0 5 6 16 13 23 7 7 24 33 38 58 13 25 27 47 30 50 9 8 99 197 99 208 0 6 4 12
8 14 11 4 62 167 77 245 12 64 12 229 1 305 -17 114 -88 300 -132 349 -8 8
-14 19 -14 23 0 7 -63 77 -115 129 -30 30 -142 100 -215 134 -134 64 -336 126
-480 149 -48 7 -81 13 -105 18 -19 3 -74 10 -185 22 -115 12 -235 16 -488 17
-151 1 -275 1 -276 0z"/>
<path d="M2499 2532 l-55 -3 0 -252 1 -252 3430 0 3430 0 3 253 2 252 -47 0
c-269 3 -6722 4 -6764 2z"/>
<path d="M2502 1518 c-9 -3 -26 -4 -38 -1 -20 4 -20 2 -20 -249 l1 -253 3430
0 3430 0 3 252 2 253 -45 -3 c-25 -1 -45 1 -45 6 0 4 -8 4 -17 -1 -10 -5 -27
-6 -38 -2 -11 4 -34 4 -52 -1 -20 -4 -33 -3 -33 3 0 5 -5 6 -12 2 -14 -9 -103
-8 -118 1 -5 3 -10 3 -10 -2 0 -4 -45 -8 -100 -8 -55 0 -100 4 -100 8 0 5 -5
5 -11 2 -6 -4 -43 -7 -82 -6 -40 1 -101 1 -137 0 -36 0 -72 0 -80 0 -74 2
-133 0 -141 -4 -5 -4 -9 -2 -9 4 0 6 -8 7 -17 4 -18 -7 -139 -7 -185 0 -16 2
-28 1 -28 -2 0 -3 -20 -6 -45 -6 -25 0 -45 4 -45 8 0 5 -5 5 -12 1 -14 -9
-103 -8 -118 1 -5 3 -10 3 -10 -2 0 -4 -46 -7 -102 -6 -57 2 -132 2 -168 2
-36 0 -71 0 -77 0 -47 1 -103 1 -135 -2 -21 -1 -38 1 -38 6 0 4 -8 4 -17 -1
-10 -5 -27 -6 -38 -2 -11 4 -34 4 -52 -1 -20 -4 -33 -3 -33 3 0 5 -5 6 -12 2
-14 -9 -103 -8 -118 1 -5 3 -10 3 -10 -2 0 -4 -45 -8 -100 -8 -55 0 -100 4
-100 8 0 5 -5 5 -11 2 -6 -4 -43 -7 -82 -6 -40 1 -101 1 -137 0 -36 0 -72 0
-80 0 -74 2 -133 0 -141 -4 -5 -4 -9 -2 -9 4 0 6 -8 7 -17 4 -18 -7 -139 -7
-185 0 -16 2 -28 1 -28 -2 0 -3 -20 -6 -45 -6 -25 0 -45 4 -45 8 0 5 -5 5 -12
1 -14 -9 -103 -8 -118 1 -5 3 -10 3 -10 -2 0 -4 -46 -7 -102 -6 -57 2 -132 2
-168 2 -36 0 -71 0 -77 0 -47 1 -103 1 -135 -2 -21 -1 -38 1 -38 6 0 4 -8 4
-17 -1 -10 -5 -27 -6 -38 -2 -11 4 -34 4 -52 -1 -20 -4 -33 -3 -33 3 0 5 -5 6
-12 2 -14 -9 -103 -8 -118 1 -5 3 -10 3 -10 -2 0 -4 -45 -8 -100 -8 -55 0
-100 4 -100 8 0 5 -5 5 -11 2 -6 -4 -43 -7 -82 -6 -40 1 -101 1 -137 0 -36 0
-72 0 -80 0 -74 2 -133 0 -141 -4 -5 -4 -9 -2 -9 4 0 6 -8 7 -17 4 -18 -7
-139 -7 -185 0 -16 2 -28 1 -28 -2 0 -3 -20 -6 -45 -6 -25 0 -45 4 -45 8 0 5
-5 5 -12 1 -14 -9 -103 -8 -118 1 -5 3 -10 3 -10 -2 0 -4 -46 -7 -102 -6 -57
2 -132 2 -168 2 -36 0 -71 0 -77 0 -47 1 -103 1 -135 -2 -21 -1 -38 1 -38 6 0
4 -8 4 -17 -1 -10 -5 -27 -6 -38 -2 -11 4 -34 4 -52 -1 -20 -4 -33 -3 -33 3 0
5 -5 6 -12 2 -14 -9 -103 -8 -118 1 -5 3 -10 3 -10 -2 0 -4 -45 -8 -100 -8
-55 0 -100 4 -100 8 0 5 -5 5 -11 1 -9 -5 -50 -6 -194 -3 -5 0 -39 0 -75 0
-36 -1 -91 0 -123 1 -32 2 -66 0 -75 -4z"/>
<path d="M2449 506 c-1 -1 -3 -115 -4 -253 l-2 -253 3434 0 3433 0 -2 252 -3
253 -3427 1 c-1886 0 -3429 0 -3429 0z"/>
</g>
</svg>
