<?xml version="1.0" encoding="UTF-8" standalone="no"?>
<!-- Created with Inkscape (http://www.inkscape.org/) -->

<svg
   xmlns:dc="http://purl.org/dc/elements/1.1/"
   xmlns:cc="http://creativecommons.org/ns#"
   xmlns:rdf="http://www.w3.org/1999/02/22-rdf-syntax-ns#"
   xmlns:svg="http://www.w3.org/2000/svg"
   xmlns="http://www.w3.org/2000/svg"
   xmlns:sodipodi="http://sodipodi.sourceforge.net/DTD/sodipodi-0.dtd"
   xmlns:inkscape="http://www.inkscape.org/namespaces/inkscape"
   height="42.862499mm"
   width="26.937889mm"
   viewBox="0 0 95.449213 151.87499"
   id="svg2"
   version="1.1"
   inkscape:version="0.91 r13725"
   sodipodi:docname="2STACLogo2Only.svg">
  <defs
     id="defs8" />
  <sodipodi:namedview
     pagecolor="#ffffff"
     bordercolor="#666666"
     borderopacity="1"
     objecttolerance="10"
     gridtolerance="10"
     guidetolerance="10"
     inkscape:pageopacity="0"
     inkscape:pageshadow="2"
     inkscape:window-width="1366"
     inkscape:window-height="731"
     id="namedview6"
     showgrid="false"
     fit-margin-top="0"
     fit-margin-left="0"
     fit-margin-right="0"
     fit-margin-bottom="0"
     inkscape:zoom="0.46370431"
     inkscape:cx="319.43848"
     inkscape:cy="26.92193"
     inkscape:window-x="0"
     inkscape:window-y="0"
     inkscape:window-maximized="1"
     inkscape:current-layer="flowRoot3140" />
  <metadata
     id="metadata4">
    <rdf:RDF>
      <cc:Work
         rdf:about="">
        <dc:format>image/svg+xml</dc:format>
        <dc:type
           rdf:resource="http://purl.org/dc/dcmitype/StillImage" />
        <dc:title></dc:title>
      </cc:Work>
    </rdf:RDF>
  </metadata>
  <g
     transform="translate(-17.859375,-304.95627)"
     style="font-style:normal;font-weight:normal;font-size:40px;line-height:125%;font-family:sans-serif;letter-spacing:0px;word-spacing:0px;fill:#000000;fill-opacity:1;stroke:none;stroke-width:1px;stroke-linecap:butt;stroke-linejoin:miter;stroke-opacity:1"
     id="flowRoot3140">
    <path
       style="font-style:normal;font-variant:normal;font-weight:normal;font-stretch:normal;font-size:180px;font-family:Monoton;-inkscape-font-specification:Monoton;fill:#ff0000"
       d="m 20.144531,431.51877 0,-6.32812 85.781249,0 0,6.32812 -85.781249,0 z"
       id="path3171"
       inkscape:connector-curvature="0" />
    <path
       style="font-style:normal;font-variant:normal;font-weight:normal;font-stretch:normal;font-size:180px;font-family:Monoton;-inkscape-font-specification:Monoton;fill:#008000"
       d="m 20.144531,444.17502 0,-6.32812 85.781249,0 0,6.32812 -85.781249,0 z"
       id="path3169"
       inkscape:connector-curvature="0" />
    <path
       style="font-style:normal;font-variant:normal;font-weight:normal;font-stretch:normal;font-size:180px;font-family:Monoton;-inkscape-font-specification:Monoton;fill:#000080"
       d="m 20.144531,456.83127 0,-6.32812 85.781249,0 0,6.32812 -85.781249,0 z"
       id="path3167"
       inkscape:connector-curvature="0" />
    <path
       style="font-style:normal;font-variant:normal;font-weight:normal;font-stretch:normal;font-size:180px;font-family:Monoton;-inkscape-font-specification:Monoton;fill:#800080"
       d="m 29.900391,421.67502 -7.382813,0 q 6.152344,-8.34961 12.128906,-16.34765 5.976563,-7.99805 9.931641,-13.27149 4.042969,-5.36132 7.822266,-10.45898 3.779296,-5.09766 6.064453,-8.17383 2.373047,-3.07617 4.482422,-5.97656 2.109375,-2.90039 3.164062,-4.48242 1.054688,-1.66993 1.845703,-3.16407 0.878906,-1.49414 1.142578,-2.37304 0.263672,-0.9668 0.263672,-1.84571 0,-4.04296 -3.339844,-5.18554 -3.339843,-1.14258 -11.777343,-1.14258 -13.710938,0 -27.421875,3.60351 l -1.31836,-6.06445 q 2.197266,-0.9668 11.074219,-2.46094 8.964844,-1.58203 17.226563,-1.58203 5.009765,0 8.701171,0.61524 3.691407,0.52734 6.679688,1.93359 3.076172,1.31836 4.658203,3.95508 1.582031,2.54883 1.582031,6.32812 0,3.7793 -3.867187,9.66797 -3.867188,5.88867 -19.863281,27.2461 -13.007813,17.31445 -21.796875,29.17968 z"
       id="path3165"
       inkscape:connector-curvature="0" />
    <path
       style="font-style:normal;font-variant:normal;font-weight:normal;font-stretch:normal;font-size:180px;font-family:Monoton;-inkscape-font-specification:Monoton;fill:#000080"
       d="m 44.226562,421.67502 -7.382812,0 q 32.783203,-44.12109 36.386719,-49.30664 7.382812,-10.54687 8.261718,-15.02929 0.263672,-1.23047 0.263672,-2.63672 0,-18.19336 -27.597656,-18.19336 -8.4375,0 -17.138672,1.49414 -8.701172,1.49414 -12.74414,2.98828 l -1.230469,-6.06445 q 15.029297,-4.65821 31.201172,-4.65821 5.625,0 10.371093,0.79102 4.833985,0.70312 9.228516,2.46094 4.394531,1.75781 7.470703,4.57031 3.076172,2.72461 4.833985,6.94336 1.845703,4.21875 1.845703,9.66797 0,5.625 -5.53711,14.15039 -5.537109,8.52539 -33.134765,45.8789 -3.339844,4.48243 -5.097657,6.94336 z"
       id="path3163"
       inkscape:connector-curvature="0" />
    <path
       style="font-style:normal;font-variant:normal;font-weight:normal;font-stretch:normal;font-size:180px;font-family:Monoton;-inkscape-font-specification:Monoton;fill:#008000"
       d="m 58.904297,421.67502 -7.382813,0 q 29.970703,-40.95703 36.386719,-50.97656 6.416016,-10.10742 6.416016,-16.875 0,-8.26172 -3.251953,-14.23828 -3.164063,-5.97656 -8.964844,-9.31641 -5.712891,-3.33984 -12.65625,-4.83398 -6.855469,-1.49414 -15.292969,-1.49414 -16.259766,0 -32.431641,4.92187 l -1.318359,-6.41601 q 17.314453,-5.09766 33.486328,-5.09766 7.910156,0 14.677735,1.14258 6.767578,1.14258 12.74414,3.86719 6.064453,2.63672 10.195313,6.76758 4.21875,4.13086 6.679687,10.45898 2.460934,6.24023 2.460934,14.23828 0,5.71289 -2.724606,11.68945 -2.636718,5.88868 -11.074218,18.01758 -8.34961,12.12891 -27.949219,38.14453 z"
       id="path3161"
       inkscape:connector-curvature="0" />
    <path
       style="font-style:normal;font-variant:normal;font-weight:normal;font-stretch:normal;font-size:180px;font-family:Monoton;-inkscape-font-specification:Monoton;fill:#ff0000"
       d="m 74.109375,421.67502 -7.382813,0 q 18.544922,-24.52148 26.806641,-36.82617 8.349607,-12.39258 10.898437,-18.7207 2.54883,-6.41602 2.54883,-13.18359 0,-8.61329 -2.63672,-15.55665 -2.54883,-7.03125 -7.294922,-11.77734 -4.658203,-4.83398 -11.25,-8.08594 -6.591797,-3.25195 -14.501953,-4.74609 -7.822266,-1.49414 -16.962891,-1.49414 -16.875,0 -35.15625,5.27344 l -1.318359,-6.24024 q 18.544922,-5.36133 36.298828,-5.36133 13.183594,0 23.818359,2.90039 10.722657,2.8125 18.632813,8.5254 7.998045,5.71289 12.304685,15.02929 4.39453,9.31641 4.39453,21.53321 0,7.73437 -2.54882,14.58984 -2.46094,6.85547 -10.898442,19.42383 -8.349609,12.56836 -25.751953,34.71679 z"
       id="path3149"
       inkscape:connector-curvature="0" />
  </g>
</svg>
