<?xml version="1.0" encoding="UTF-8" standalone="no"?>
<!-- Created with Inkscape (http://www.inkscape.org/) -->

<svg
   xmlns:dc="http://purl.org/dc/elements/1.1/"
   xmlns:cc="http://creativecommons.org/ns#"
   xmlns:rdf="http://www.w3.org/1999/02/22-rdf-syntax-ns#"
   xmlns:svg="http://www.w3.org/2000/svg"
   xmlns="http://www.w3.org/2000/svg"
   xmlns:sodipodi="http://sodipodi.sourceforge.net/DTD/sodipodi-0.dtd"
   xmlns:inkscape="http://www.inkscape.org/namespaces/inkscape"
   height="44.648438mm"
   width="180.30527mm"
   viewBox="0 0 638.87693 158.20312"
   id="svg2"
   version="1.1"
   inkscape:version="0.91 r13725"
   sodipodi:docname="2STACLogo.svg">
  <defs
     id="defs8" />
  <sodipodi:namedview
     pagecolor="#ffffff"
     bordercolor="#666666"
     borderopacity="1"
     objecttolerance="10"
     gridtolerance="10"
     guidetolerance="10"
     inkscape:pageopacity="0"
     inkscape:pageshadow="2"
     inkscape:window-width="1366"
     inkscape:window-height="731"
     id="namedview6"
     showgrid="false"
     fit-margin-top="0"
     fit-margin-left="0"
     fit-margin-right="0"
     fit-margin-bottom="0"
     inkscape:zoom="0.46370431"
     inkscape:cx="319.43848"
     inkscape:cy="33.250055"
     inkscape:window-x="0"
     inkscape:window-y="0"
     inkscape:window-maximized="1"
     inkscape:current-layer="flowRoot3140" />
  <metadata
     id="metadata4">
    <rdf:RDF>
      <cc:Work
         rdf:about="">
        <dc:format>image/svg+xml</dc:format>
        <dc:type
           rdf:resource="http://purl.org/dc/dcmitype/StillImage" />
        <dc:title></dc:title>
      </cc:Work>
    </rdf:RDF>
  </metadata>
  <g
     transform="translate(-17.859375,-304.95627)"
     style="font-style:normal;font-weight:normal;font-size:40px;line-height:125%;font-family:sans-serif;letter-spacing:0px;word-spacing:0px;fill:#000000;fill-opacity:1;stroke:none;stroke-width:1px;stroke-linecap:butt;stroke-linejoin:miter;stroke-opacity:1"
     id="flowRoot3140">
    <path
       style="font-style:normal;font-variant:normal;font-weight:normal;font-stretch:normal;font-size:180px;font-family:Monoton;-inkscape-font-specification:Monoton;fill:#ff0000"
       d="m 20.144531,431.51877 0,-6.32812 85.781249,0 0,6.32812 -85.781249,0 z"
       id="path3171" />
    <path
       style="font-style:normal;font-variant:normal;font-weight:normal;font-stretch:normal;font-size:180px;font-family:Monoton;-inkscape-font-specification:Monoton;fill:#008000"
       d="m 20.144531,444.17502 0,-6.32812 85.781249,0 0,6.32812 -85.781249,0 z"
       id="path3169" />
    <path
       style="font-style:normal;font-variant:normal;font-weight:normal;font-stretch:normal;font-size:180px;font-family:Monoton;-inkscape-font-specification:Monoton;fill:#000080"
       d="m 20.144531,456.83127 0,-6.32812 85.781249,0 0,6.32812 -85.781249,0 z"
       id="path3167" />
    <path
       style="font-style:normal;font-variant:normal;font-weight:normal;font-stretch:normal;font-size:180px;font-family:Monoton;-inkscape-font-specification:Monoton;fill:#800080"
       d="m 29.900391,421.67502 -7.382813,0 q 6.152344,-8.34961 12.128906,-16.34765 5.976563,-7.99805 9.931641,-13.27149 4.042969,-5.36132 7.822266,-10.45898 3.779296,-5.09766 6.064453,-8.17383 2.373047,-3.07617 4.482422,-5.97656 2.109375,-2.90039 3.164062,-4.48242 1.054688,-1.66993 1.845703,-3.16407 0.878906,-1.49414 1.142578,-2.37304 0.263672,-0.9668 0.263672,-1.84571 0,-4.04296 -3.339844,-5.18554 -3.339843,-1.14258 -11.777343,-1.14258 -13.710938,0 -27.421875,3.60351 l -1.31836,-6.06445 q 2.197266,-0.9668 11.074219,-2.46094 8.964844,-1.58203 17.226563,-1.58203 5.009765,0 8.701171,0.61524 3.691407,0.52734 6.679688,1.93359 3.076172,1.31836 4.658203,3.95508 1.582031,2.54883 1.582031,6.32812 0,3.7793 -3.867187,9.66797 -3.867188,5.88867 -19.863281,27.2461 -13.007813,17.31445 -21.796875,29.17968 z"
       id="path3165" />
    <path
       style="font-style:normal;font-variant:normal;font-weight:normal;font-stretch:normal;font-size:180px;font-family:Monoton;-inkscape-font-specification:Monoton;fill:#000080"
       d="m 44.226562,421.67502 -7.382812,0 q 32.783203,-44.12109 36.386719,-49.30664 7.382812,-10.54687 8.261718,-15.02929 0.263672,-1.23047 0.263672,-2.63672 0,-18.19336 -27.597656,-18.19336 -8.4375,0 -17.138672,1.49414 -8.701172,1.49414 -12.74414,2.98828 l -1.230469,-6.06445 q 15.029297,-4.65821 31.201172,-4.65821 5.625,0 10.371093,0.79102 4.833985,0.70312 9.228516,2.46094 4.394531,1.75781 7.470703,4.57031 3.076172,2.72461 4.833985,6.94336 1.845703,4.21875 1.845703,9.66797 0,5.625 -5.53711,14.15039 -5.537109,8.52539 -33.134765,45.8789 -3.339844,4.48243 -5.097657,6.94336 z"
       id="path3163" />
    <path
       style="font-style:normal;font-variant:normal;font-weight:normal;font-stretch:normal;font-size:180px;font-family:Monoton;-inkscape-font-specification:Monoton;fill:#008000"
       d="m 58.904297,421.67502 -7.382813,0 q 29.970703,-40.95703 36.386719,-50.97656 6.416016,-10.10742 6.416016,-16.875 0,-8.26172 -3.251953,-14.23828 -3.164063,-5.97656 -8.964844,-9.31641 -5.712891,-3.33984 -12.65625,-4.83398 -6.855469,-1.49414 -15.292969,-1.49414 -16.259766,0 -32.431641,4.92187 l -1.318359,-6.41601 q 17.314453,-5.09766 33.486328,-5.09766 7.910156,0 14.677735,1.14258 6.767578,1.14258 12.74414,3.86719 6.064453,2.63672 10.195313,6.76758 4.21875,4.13086 6.679687,10.45898 2.460934,6.24023 2.460934,14.23828 0,5.71289 -2.724606,11.68945 -2.636718,5.88868 -11.074218,18.01758 -8.34961,12.12891 -27.949219,38.14453 z"
       id="path3161" />
    <path
       style="font-style:normal;font-variant:normal;font-weight:normal;font-stretch:normal;font-size:180px;font-family:Monoton;-inkscape-font-specification:Monoton;fill:#ff0000"
       d="m 74.109375,421.67502 -7.382813,0 q 18.544922,-24.52148 26.806641,-36.82617 8.349607,-12.39258 10.898437,-18.7207 2.54883,-6.41602 2.54883,-13.18359 0,-8.61329 -2.63672,-15.55665 -2.54883,-7.03125 -7.294922,-11.77734 -4.658203,-4.83398 -11.25,-8.08594 -6.591797,-3.25195 -14.501953,-4.74609 -7.822266,-1.49414 -16.962891,-1.49414 -16.875,0 -35.15625,5.27344 l -1.318359,-6.24024 q 18.544922,-5.36133 36.298828,-5.36133 13.183594,0 23.818359,2.90039 10.722657,2.8125 18.632813,8.5254 7.998045,5.71289 12.304685,15.02929 4.39453,9.31641 4.39453,21.53321 0,7.73437 -2.54882,14.58984 -2.46094,6.85547 -10.898442,19.42383 -8.349609,12.56836 -25.751953,34.71679 z"
       id="path3149" />
    <path
       d="m 185.4668,368.23752 -10.63477,0 q -6.76758,0 -9.75586,-3.42773 -2.98828,-3.51563 -2.98828,-9.22852 0,-12.65625 18.89648,-12.65625 17.75391,0 26.71875,5.27344 l -5.09765,3.86719 q -6.15235,-2.8125 -21.6211,-2.8125 -7.55859,0 -10.19531,1.66992 -2.54883,1.66992 -2.54883,4.6582 0,2.98829 1.40625,4.65821 1.40625,1.66992 5.18555,1.66992 l 10.89844,0 q 11.86523,0 21.35742,4.04297 9.58008,4.04297 15.73242,11.07422 6.15235,6.94336 9.4043,16.08398 3.25195,9.05274 3.25195,19.42383 0,8.4375 -2.37304,15.99609 -2.37305,7.5586 -7.20704,13.88672 -4.74609,6.32813 -11.51367,10.98633 -6.67969,4.57031 -15.99609,7.11914 -9.22852,2.63672 -20.03906,2.63672 -16.96289,0 -31.81641,-5.18555 -14.76563,-5.09765 -24.60937,-14.32617 l 5.09765,-3.7793 q 8.96484,8.08594 22.41211,12.56836 13.53516,4.39453 28.91602,4.39453 12.04101,0 21.70898,-3.42773 9.75586,-3.51563 15.99609,-9.58008 6.32813,-6.06445 9.66797,-14.0625 3.42774,-7.99805 3.42774,-17.22656 0,-12.2168 -4.92188,-22.06055 -4.92187,-9.93164 -15.02929,-16.08398 -10.01954,-6.15235 -23.73047,-6.15235 z m -10.63477,6.32813 10.01953,0 q 17.8418,0 27.86133,10.89844 10.10742,10.89843 10.10742,27.07031 0,16.43555 -11.68945,27.24609 -11.68945,10.72266 -32.7832,10.72266 -14.0625,0 -26.2793,-3.86719 -12.2168,-3.86719 -20.30274,-10.89844 l 4.92188,-3.95507 q 7.20703,5.88867 18.10547,9.14062 10.98633,3.25195 23.55469,3.25195 18.54492,0 28.30078,-8.87695 9.84375,-8.87695 9.84375,-22.76367 0,-13.71094 -8.26172,-22.67578 -8.17383,-8.96485 -23.4668,-8.96485 l -9.93164,0 q -12.83203,0 -19.24805,-7.03125 -6.41601,-7.03125 -6.41601,-18.28125 0,-11.25 7.91015,-18.28125 7.99805,-7.03125 23.90625,-7.03125 11.16211,0 20.74219,2.63672 9.58008,2.54883 15.82031,7.38282 l -5.00976,3.86718 q -10.98633,-7.55859 -31.55274,-7.55859 -13.27148,0 -19.42382,5.27344 -6.06446,5.18554 -6.06446,13.71093 0,8.61329 4.48243,13.79883 4.57031,5.18555 14.85351,5.18555 z m 0,12.65625 9.66797,0 q 12.83203,0 19.24805,7.11914 6.41601,7.11914 6.41601,18.19336 0,11.25 -7.99804,18.28125 -7.91016,7.03125 -23.81836,7.03125 -11.16211,0 -20.83008,-2.54883 -9.58008,-2.63672 -15.82031,-7.4707 l 5.00976,-3.86719 q 10.98633,7.55859 31.64063,7.55859 13.27148,0 19.33593,-5.18554 6.15235,-5.27344 6.15235,-13.79883 0,-8.52539 -4.57032,-13.71094 -4.57031,-5.27344 -14.85351,-5.27344 l -9.58008,0 q -18.01758,0 -28.21289,-10.72265 -10.10742,-10.81055 -10.10742,-27.2461 0,-16.43554 11.68945,-27.1582 11.68945,-10.81055 32.7832,-10.81055 14.0625,0 26.19141,3.86719 12.2168,3.86719 20.30274,10.89844 l -4.92188,3.95508 q -7.20703,-5.88867 -18.10547,-9.14063 -10.89844,-3.25195 -23.4668,-3.25195 -18.54492,0 -28.38867,8.87695 -9.75586,8.87696 -9.75586,22.76367 0,13.79883 8.26172,22.76368 8.26172,8.87695 23.73047,8.87695 z m 0,12.65625 9.66797,0 q 6.76758,0 9.75586,3.51562 2.98828,3.51563 2.98828,9.14063 0,12.65625 -18.89648,12.65625 -17.8418,0 -26.80664,-5.27344 l 5.09765,-3.86719 q 6.15235,2.8125 21.70899,2.8125 7.55859,0 10.10742,-1.66992 2.63672,-1.66992 2.63672,-4.6582 0,-2.90039 -1.49414,-4.57031 -1.40625,-1.75782 -5.27344,-1.75782 l -9.49219,0 q -12.12891,0 -21.97266,-3.95507 -9.75585,-3.95508 -16.08398,-10.89844 -6.24023,-6.94336 -9.58008,-16.08399 -3.33984,-9.14062 -3.33984,-19.6875 0,-8.4375 2.37305,-15.99609 2.37304,-7.55859 7.11914,-13.88672 4.83398,-6.32812 11.51367,-10.89844 6.76758,-4.6582 15.99609,-7.20703 9.31641,-2.63672 20.12695,-2.63672 16.9629,0 31.72852,5.18555 14.76563,5.09766 24.60938,14.32617 l -5.09766,3.7793 q -8.96484,-8.08594 -22.41211,-12.48047 -13.44727,-4.48242 -28.82813,-4.48242 -12.04101,0 -21.79687,3.51562 -9.66797,3.42774 -15.99609,9.49219 -6.24024,6.06445 -9.66797,14.0625 -3.33985,7.99805 -3.33985,17.22656 0,12.39258 5.00977,22.32422 5.00976,9.93164 15.29297,15.9961 10.2832,5.97656 24.3457,5.97656 z"
       style="font-style:normal;font-variant:normal;font-weight:normal;font-stretch:normal;font-size:180px;font-family:Monoton;-inkscape-font-specification:Monoton"
       id="path3151" />
    <path
       d="m 246.55078,317.61252 0,-6.32812 94.92188,0 0,6.32812 -94.92188,0 z m 0,12.65625 0,-6.32812 94.92188,0 0,6.32812 -94.92188,0 z m 0,12.65625 0,-6.32812 94.92188,0 0,6.32812 -25.3125,0 0,113.90625 -6.32813,0 0,-113.90625 -6.32812,0 0,113.90625 -6.32813,0 0,-113.90625 -6.32812,0 0,113.90625 -6.32813,0 0,-113.90625 -6.32812,0 0,113.90625 -6.32813,0 0,-113.90625 -25.3125,0 z"
       style="font-style:normal;font-variant:normal;font-weight:normal;font-stretch:normal;font-size:180px;font-family:Monoton;-inkscape-font-specification:Monoton"
       id="path3153" />
    <path
       d="m 418.72852,414.11643 2.54882,-6.32812 21.6211,0 2.54883,6.32812 -26.71875,0 z m -4.92188,12.65625 2.46094,-6.32812 31.55273,0 2.72461,6.32812 -36.73828,0 z m -4.92187,12.65625 2.46093,-6.32812 41.48438,0 2.63672,6.32812 -46.58203,0 z m -51.41602,17.40234 -6.85547,0 57.56836,-145.54687 6.85547,0 57.48047,145.54687 -6.76758,0 -54.14063,-137.02148 -54.14062,137.02148 z m 54.93164,-121.99218 3.60352,8.08593 -45,113.90625 -6.76758,0 48.16406,-121.99218 z m 7.03125,16.69922 3.33984,8.70117 -38.05664,96.59179 -6.85547,0 41.57227,-105.29296 z m 6.67969,17.40234 3.33984,8.87695 -31.20117,79.01367 -6.76758,0 34.62891,-87.89062 z m 87.27539,87.89062 -6.85547,0 -57.48047,-145.54687 6.76758,0 57.56836,145.54687 z m -71.19141,-145.54687 57.56836,145.54687 -6.76758,0 -57.56836,-145.54687 6.76758,0 z m -13.62304,0 57.56835,145.54687 -6.85546,0 -57.48047,-145.54687 6.76758,0 z"
       style="font-style:normal;font-variant:normal;font-weight:normal;font-stretch:normal;font-size:180px;font-family:Monoton;-inkscape-font-specification:Monoton"
       id="path3155" />
    <path
       d="m 625.35937,361.03049 -5.18554,3.42774 q -4.7461,-7.03125 -12.39258,-11.07422 -7.55859,-4.13086 -16.43555,-4.13086 -14.41406,0 -24.60937,10.19531 -10.19531,10.19531 -10.19531,24.60938 0,14.41406 10.19531,24.60937 10.19531,10.19531 24.60937,10.19531 8.87696,0 16.43555,-4.13086 7.64648,-4.13085 12.39258,-11.1621 l 5.09765,3.6914 q -5.625,8.26172 -14.58984,13.0957 -8.96484,4.83399 -19.33594,4.83399 -8.34961,0 -15.99609,-3.25195 -7.55859,-3.25196 -13.0957,-8.78907 -5.53711,-5.53711 -8.78907,-13.0957 -3.25195,-7.64648 -3.25195,-15.99609 0,-8.34961 3.25195,-15.90821 3.25196,-7.64648 8.78907,-13.18359 5.53711,-5.53711 13.0957,-8.78906 7.64648,-3.25196 15.99609,-3.25196 10.45899,0 19.42383,4.92188 8.96484,4.83398 14.58984,13.18359 z m 10.45899,-7.20703 -5.27344,3.42774 q -6.5039,-9.49219 -16.875,-15.0293 -10.2832,-5.625 -22.32422,-5.625 -12.91992,0 -23.81836,6.41601 -10.89843,6.32813 -17.31445,17.22657 -6.32812,10.89843 -6.32812,23.81836 0,12.91992 6.32812,23.81836 6.41602,10.89843 17.31445,17.31445 10.89844,6.32812 23.81836,6.32812 12.04102,0 22.41211,-5.625 10.3711,-5.625 16.875,-15.20507 l 5.18555,3.60351 q -7.38281,10.89844 -19.16016,17.22656 -11.68945,6.32813 -25.3125,6.32813 -14.58984,0 -26.98242,-7.20703 -12.39258,-7.20703 -19.59961,-19.59961 -7.20703,-12.39258 -7.20703,-26.98242 0,-14.58985 7.20703,-26.98243 7.20703,-12.39257 19.59961,-19.5996 12.39258,-7.20704 26.98242,-7.20704 13.62305,0 25.3125,6.32813 11.77735,6.32812 19.16016,17.22656 z m 10.54687,-7.03125 -5.27343,3.42774 q -8.26172,-12.12891 -21.44532,-19.16016 -13.0957,-7.11914 -28.30078,-7.11914 -12.21679,0 -23.3789,4.74609 -11.16211,4.7461 -19.24805,12.83203 -7.99805,7.99805 -12.74414,19.16016 -4.74609,11.16211 -4.74609,23.37891 0,12.21679 4.74609,23.3789 4.74609,11.16211 12.74414,19.24805 8.08594,7.99805 19.24805,12.74414 11.16211,4.74609 23.3789,4.74609 15.29297,0 28.38867,-7.11914 13.09571,-7.11914 21.35743,-19.24804 l 5.09765,3.77929 q -9.14062,13.35938 -23.64258,21.18164 -14.41406,7.73438 -31.20117,7.73438 -18.01758,0 -33.31054,-8.87695 -15.29297,-8.96485 -24.25782,-24.25782 -8.87695,-15.29297 -8.87695,-33.31054 0,-18.01758 8.87695,-33.31055 8.96485,-15.29297 24.25782,-24.16992 15.29296,-8.96485 33.31054,-8.96485 16.875,0 31.37696,7.91016 14.50195,7.82227 23.64257,21.26953 z m 10.3711,-7.20703 -5.27344,3.42773 q -10.01953,-14.67773 -25.92773,-23.20312 -15.82032,-8.52539 -34.18946,-8.52539 -14.76562,0 -28.30078,5.80078 -13.44726,5.71289 -23.20312,15.46875 -9.75586,9.75586 -15.55664,23.29102 -5.71289,13.44726 -5.71289,28.21289 0,14.76562 5.71289,28.30078 5.80078,13.44726 15.55664,23.20312 9.75586,9.75586 23.20312,15.55664 13.53516,5.71289 28.30078,5.71289 18.36914,0 34.27735,-8.61328 15.9082,-8.61328 25.92773,-23.29101 l 5.09766,3.86718 q -10.89844,15.82032 -28.125,25.13672 -17.22657,9.22852 -37.17774,9.22852 -16.08398,0 -30.76172,-6.32813 -14.58984,-6.24023 -25.22461,-16.78711 -10.54687,-10.63476 -16.875,-25.2246 -6.24023,-14.67774 -6.24023,-30.76172 0,-16.08399 6.24023,-30.67383 6.32813,-14.67774 16.875,-25.22461 10.63477,-10.63477 25.22461,-16.875 14.67774,-6.32813 30.76172,-6.32813 20.03907,0 37.26563,9.31641 17.22656,9.31641 28.125,25.3125 z"
       style="font-style:normal;font-variant:normal;font-weight:normal;font-stretch:normal;font-size:180px;font-family:Monoton;-inkscape-font-specification:Monoton;fill:#000000"
       id="path3157" />
  </g>
</svg>
